# xmcd
# 
# Track frame offsets:
#     150
#     19690
#     38607
#     59920
#     79195
#     99500
#     118945
#     138892
#     156362
#     175717
#     193792
#     211737
#     230595
#     251440
#     269620
# 
# Disc length: 3861
# 
# Revision: 2
# Processed by: cddbd v1.5.2PL0 Copyright (c) Steve Scherf et al.
# Submitted via: fre:ac v1.0.31
# 
DISCID=d10f130f
DTITLE=薬師丸ひろ子 - TWIN BEST Disc2
DYEAR=1998
DGENRE=JPop
TTITLE0=ささやきのステップ
TTITLE1=冷たくされたい
TTITLE2=夢の中へ
TTITLE3=眠りの坂道
TTITLE4=白い散歩道
TTITLE5=紫の花火
TTITLE6=赤い花、青い花
TTITLE7=月のオペラ
TTITLE8=胸の振子
TTITLE9=紳士同盟
TTITLE10=A LOVER'S CONCERTO
TTITLE11=語りつぐ愛に
TTITLE12=花のささやき
TTITLE13=Windy Boy
TTITLE14=風に乗って
EXTD=YEAR: 1998
EXTT0=
EXTT1=
EXTT2=
EXTT3=
EXTT4=
EXTT5=
EXTT6=
EXTT7=
EXTT8=
EXTT9=
EXTT10=
EXTT11=
EXTT12=
EXTT13=
EXTT14=
PLAYORDER=
